<svg id="Layer_1" data-name="Layer 1" xmlns="http://www.w3.org/2000/svg" viewBox="0 0 120.79 20.66"><defs><style>.cls-1{fill:#f6682f;}</style></defs><title>Artboard 4 copy 10</title><path id="_Compound_Path_" data-name="&lt;Compound Path&gt;" class="cls-1" d="M52.73,11.53v8.16a.19.19,0,0,1-.13.18c-.66.22-3.39.41-3.39-2.89V11.76a2,2,0,0,0-2.3-2.21,8.3,8.3,0,0,0-2.23.31.29.29,0,0,0-.21.28v9.33a.19.19,0,0,1-.19.19H41.18a.19.19,0,0,1-.19-.19V7.76a.29.29,0,0,1,.19-.28,18.9,18.9,0,0,1,6-1.06C50.55,6.42,52.73,7.67,52.73,11.53ZM93.59.68A2.09,2.09,0,1,0,95.69,2.8,2.09,2.09,0,0,0,93.59.68Zm1.75,19a.19.19,0,0,1-.13.18c-.66.22-3.36.4-3.36-2.87V6.9a.19.19,0,0,1,.19-.19h3.11a.19.19,0,0,1,.19.19Zm-15.8-6.8c0,4.21-2.64,7.09-7.67,7.09a14.8,14.8,0,0,1-4.67-.75c-.28-.09-.48-.15-.48-.66V1.29a.2.2,0,0,1,.13-.18C67.52.89,70.22.7,70.22,4c0,0,0,2.67,0,2.94a.08.08,0,0,0,.13.07,6.61,6.61,0,0,1,2.78-.57A6.13,6.13,0,0,1,79.55,12.89ZM76,13a3.28,3.28,0,0,0-3.4-3.4,4.22,4.22,0,0,0-2.28.62.19.19,0,0,0-.08.15v6c0,.35.12.42.3.49A6,6,0,0,0,72,17,3.65,3.65,0,0,0,76,13Zm13.65-3c.28-.65,1-3.55-2.83-3.55a12.13,12.13,0,0,0-4.78,1c-.17.08-.39.15-.39.41V19.49a.19.19,0,0,0,.19.19h3.11a.19.19,0,0,0,.19-.19s0-8.29,0-9.36a.19.19,0,0,1,.12-.17,5.71,5.71,0,0,1,1.65-.26,7,7,0,0,1,2.5.37A.2.2,0,0,0,89.63,10ZM64,16.32a.19.19,0,0,0-.23-.06,4.58,4.58,0,0,1-2,.51c-1,0-1.74-.46-1.74-1.95v-5a.19.19,0,0,1,.19-.19h3.31a.19.19,0,0,0,.19-.19V6.9a.19.19,0,0,0-.19-.19H60.16A.19.19,0,0,1,60,6.53c0-.59,0-3,0-3a.19.19,0,0,0-.19-.19H56.67a.19.19,0,0,0-.19.19v3a.19.19,0,0,1-.19.19H54.72a.19.19,0,0,0-.19.19V9.43a.19.19,0,0,0,.19.19h.75a1,1,0,0,1,1,1v5.12c0,3.14,2,4.21,4.27,4.21s3.1-.94,3.36-1.41A2.19,2.19,0,0,0,64,16.32Zm42.82,0a.19.19,0,0,0-.23-.06,4.58,4.58,0,0,1-2,.51c-1,0-1.74-.46-1.74-1.95v-5a.19.19,0,0,1,.19-.19h3.31a.19.19,0,0,0,.19-.19V6.9a.19.19,0,0,0-.19-.19H103a.19.19,0,0,1-.19-.19c0-.59,0-3,0-3a.19.19,0,0,0-.19-.19H99.49a.19.19,0,0,0-.19.19v3a.19.19,0,0,1-.19.19H97.55a.19.19,0,0,0-.19.19V9.43a.19.19,0,0,0,.19.19h.75a1,1,0,0,1,1,1v5.12c0,3.14,2,4.21,4.27,4.21s3.1-.94,3.36-1.41A2.19,2.19,0,0,0,106.79,16.32Zm-95.15.13h0a.2.2,0,0,0-.19-.14H4.22A.19.19,0,0,1,4,16.11V12.83a.19.19,0,0,1,.19-.19h6.21a.19.19,0,0,0,.19-.19q0-1.44,0-2.88a.19.19,0,0,0-.19-.19H4.21A.19.19,0,0,1,4,9.21V6a.19.19,0,0,1,.19-.19h7a.19.19,0,0,0,.19-.19v-3a.19.19,0,0,0-.19-.19H3.28A2.88,2.88,0,0,0,.39,5.3V19.49a.19.19,0,0,0,.19.19H8.86C12,19.68,11.85,17.11,11.64,16.44ZM26.36,6.71H23.14c-.13,0-.18.08-.23.23l-3.14,9h0c0,.1-.14.1-.18,0h0L17,8.42C15.84,5.47,13.42,6.52,12.85,7a.2.2,0,0,0-.06.26l4.67,12.2c.05.14.08.26.26.26h3.81c.18,0,.21-.12.26-.26L26.51,7.07C26.62,6.77,26.42,6.71,26.36,6.71Zm3.88,7.63A3.61,3.61,0,0,0,34,17a9.13,9.13,0,0,0,3.91-.87.19.19,0,0,1,.23.06c.4.52,1.18,2.77-1.9,3.51a11.43,11.43,0,0,1-2.6.29c-4.22,0-6.87-2.59-6.87-6.64,0-4.28,2.71-6.93,6.35-6.93,4.35,0,5.62,3,5.62,6.7a1,1,0,0,1-1,1h-7.3A.17.17,0,0,0,30.24,14.34Zm.23-2.28h4.84a.17.17,0,0,0,.19-.18c-.08-1.51-.84-2.59-2.44-2.59a2.87,2.87,0,0,0-2.78,2.58C30.26,12,30.32,12.06,30.47,12.06Zm81.39,2.28A3.61,3.61,0,0,0,115.65,17a9.13,9.13,0,0,0,3.91-.87.19.19,0,0,1,.23.06c.4.52,1.18,2.77-1.9,3.51a11.43,11.43,0,0,1-2.6.29c-4.22,0-6.87-2.59-6.87-6.64,0-4.28,2.71-6.93,6.35-6.93,4.35,0,5.62,3,5.62,6.7a1,1,0,0,1-1,1H112A.17.17,0,0,0,111.86,14.34Zm.23-2.28h4.84a.17.17,0,0,0,.19-.18c-.08-1.51-.84-2.59-2.44-2.59a2.87,2.87,0,0,0-2.78,2.58C111.88,12,111.94,12.06,112.09,12.06Z"/></svg>