<?xml version="1.0" encoding="UTF-8"?>
<svg width="166px" height="97px" viewBox="0 0 166 97" version="1.1" xmlns="http://www.w3.org/2000/svg" xmlns:xlink="http://www.w3.org/1999/xlink">
    <!-- Generator: Sketch 44.1 (41455) - http://www.bohemiancoding.com/sketch -->
    <title>Group 5</title>
    <desc>Created with Sketch.</desc>
    <defs></defs>
    <g id="R1" stroke="none" stroke-width="1" fill="none" fill-rule="evenodd">
        <g id="Desktop-Screen2-V3" transform="translate(-557.000000, -1062.000000)">
            <g id="Group-5" transform="translate(557.000000, 1062.000000)">
                <g id="Group-6">
                    <g id="Group-4-Copy" transform="translate(109.752700, 36.887011) rotate(8.000000) translate(-109.752700, -36.887011) translate(56.752700, 7.387011)">
                        <path d="M6.17977625,0.071038332 L98.9869686,0.071038332 C102.328028,0.071038332 105.039612,2.6835352 105.039612,5.90250455 L105.039612,30.4641249 L105.039612,52.5542343 C105.039612,55.7732037 102.328028,58.3857006 98.9869686,58.3857006 L6.17977625,58.3857006 C2.83871733,58.3857006 0.127133274,55.7732037 0.127133274,52.5542343 L0.127133274,5.90250455 C0.127133274,2.6835352 2.83871733,0.071038332 6.17977625,0.071038332 Z" id="Fill-1" stroke="#007F8C" fill="#007F8C"></path>
                        <polygon id="Fill-3" stroke="#39C2C9" fill="#39C2C9" points="0.127133274 23.3969032 105.039612 23.3969032 105.039612 7.84632663 0.127133274 7.84632663"></polygon>
                        <path d="M94.9518733,15.6216149 L74.7763967,15.6216149" id="Stroke-15" stroke="#007F8C" stroke-width="2"></path>
                        <path d="M70.7413014,15.6216149 L62.6711107,15.6216149" id="Stroke-16" stroke="#007F8C" stroke-width="2"></path>
                    </g>
                    <g id="Group-2" transform="translate(56.843767, 59.355963) rotate(-8.000000) translate(-56.843767, -59.355963) translate(3.843767, 29.355963)">
                        <path d="M99.1263039,0.676791551 C102.467363,0.676791551 105.178947,3.33284646 105.178947,6.60548553 L105.178947,54.0350374 C105.178947,57.3076765 102.467363,59.9637314 99.1263039,59.9637314 L6.31911154,59.9637314 C2.97805261,59.9637314 0.266468559,57.3076765 0.266468559,54.0350374 L0.266468559,6.60548553 C0.266468559,3.33284646 2.97805261,0.676791551 6.31911154,0.676791551 L99.1263039,0.676791551 Z" id="Fill-6" stroke="#39C2C9" fill="#39C2C9"></path>
                        <path d="M55.3784498,36.2905822 C54.8474844,37.3760105 54.1762408,38.3830636 53.3877212,39.2892106 L53.3877212,21.3513123 C54.1762408,22.2574593 54.8474844,23.2645124 55.3784498,24.3499408 L55.3784498,36.2905822 Z M56.1928388,34.2066979 C56.5605831,32.9737725 56.757803,31.6695774 56.757803,30.3202615 C56.757803,28.9709456 56.5605831,27.6667505 56.1928388,26.433825 L56.1928388,34.2066979 Z M52.5733322,40.1488999 C51.9620649,40.7419708 51.2957651,41.2807162 50.5826036,41.7571324 L50.5826036,18.8833906 C51.2957651,19.3598068 51.9620649,19.8985522 52.5733322,20.491623 L52.5733322,40.1488999 Z M49.7682147,42.2622186 C49.1345229,42.6261788 48.4692831,42.9431276 47.7774861,43.2081762 L47.7774861,17.4323467 C48.4692831,17.6973954 49.1345229,18.0143441 49.7682147,18.3783044 L49.7682147,42.2622186 Z M46.9630971,43.4921597 C46.3184926,43.6952238 45.6536798,43.8541481 44.9723685,43.9652988 L44.9723685,16.6752241 C45.6536798,16.7863748 46.3184926,16.9452991 46.9630971,17.1483633 L46.9630971,43.4921597 Z M44.1579796,44.0743786 C43.6576646,44.1269257 43.1495307,44.1538808 42.6349694,44.1538808 C42.4784555,44.1538808 42.3225363,44.1513869 42.1672509,44.1464376 L42.167251,16.4940849 C42.3225363,16.489136 42.4784555,16.4866422 42.6349694,16.4866422 C43.1495307,16.4866422 43.6576646,16.5135972 44.1579796,16.5661443 L44.1579796,44.0743786 Z M41.352862,44.097644 C40.6743103,44.0378336 40.009594,43.9310123 39.3621334,43.7805304 L39.3621334,16.8599925 C40.009594,16.7095106 40.6743103,16.6026893 41.352862,16.5428789 L41.352862,44.0976426 Z M38.5477445,43.5657112 C37.8606057,43.3625482 37.1955656,43.1094862 36.5570159,42.810827 L36.5570159,17.829696 C37.1955656,17.5310367 37.8606057,17.2779748 38.5477445,17.0748118 L38.5477445,43.5657112 Z M35.7426269,42.3974779 C35.0397509,42.0117893 34.3739871,41.5689345 33.7518983,41.0753419 L33.7518983,19.565181 C34.3739871,19.0715884 35.0397509,18.6287336 35.7426269,18.243045 L35.7426269,42.3974779 Z M32.9375094,40.3771816 C32.1928156,39.6879699 31.5246414,38.9202631 30.9467808,38.0875727 L30.9467808,22.5529502 C31.5246414,21.7202598 32.1928156,20.952553 32.9375094,20.2633413 L32.9375094,40.3771816 Z M30.132391,36.7598771 C29.0977523,34.8365164 28.5121358,32.6453789 28.5121358,30.3202615 C28.5121358,27.9951441 29.0977523,25.8040065 30.132391,23.8806458 L30.1323918,36.759878 Z" id="Combined-Shape" fill="#007F8C"></path>
                        <path d="M76.9332796,30.3202615 C76.9332796,37.9603718 70.6102853,44.1538808 62.810446,44.1538808 C55.0106068,44.1538808 48.6876124,37.9603718 48.6876124,30.3202615 C48.6876124,22.6801512 55.0106068,16.4866422 62.810446,16.4866422 C70.6102853,16.4866422 76.9332796,22.6801512 76.9332796,30.3202615" id="Fill-9" fill="#00D8D2"></path>
                        <path d="M20.4419452,30.3202615 L16.4068498,30.3202615" id="Stroke-13" stroke="#00D8D2" stroke-width="2"></path>
                        <path d="M89.0385656,30.3202615 L85.0034703,30.3202615" id="Stroke-14" stroke="#00D8D2" stroke-width="2"></path>
                    </g>
                </g>
            </g>
        </g>
    </g>
</svg>