<?xml version="1.0" encoding="UTF-8"?>
<svg width="97px" height="97px" viewBox="0 0 97 97" version="1.1" xmlns="http://www.w3.org/2000/svg" xmlns:xlink="http://www.w3.org/1999/xlink">
    <!-- Generator: Sketch 44 (41411) - http://www.bohemiancoding.com/sketch -->
    <title>Group</title>
    <desc>Created with Sketch.</desc>
    <defs></defs>
    <g id="R1" stroke="none" stroke-width="1" fill="none" fill-rule="evenodd">
        <g id="Desktop-Screen3-V3" transform="translate(-592.000000, -1363.000000)">
            <g id="Group" transform="translate(592.000000, 1363.000000)">
                <path d="M96.6446886,29.2539683 C96.6446886,45.4098571 83.5466093,58.5079365 67.3907204,58.5079365 C51.2348315,58.5079365 38.1367521,45.4098571 38.1367521,29.2539683 C38.1367521,13.0980794 51.2348315,0 67.3907204,0 C83.5466093,0 96.6446886,13.0980794 96.6446886,29.2539683" id="Fill-1" fill="#007F8C"></path>
                <path d="M83.4963919,32.5056593 C81.5025031,32.5056593 79.8873761,30.8905324 79.8873761,28.8981832 C79.8873761,26.9073736 81.5025031,25.290707 83.4963919,25.290707 C83.7827729,25.290707 84.0583761,25.3338181 84.3278205,25.3984847 C83.89363,23.3491673 83.083757,21.4399609 81.978265,19.7416911 C81.8335348,19.9726435 81.6687888,20.1958974 81.4670904,20.3975958 C80.0598205,21.8048657 77.7749316,21.8048657 76.3661221,20.3975958 C74.9588523,18.9887863 74.9588523,16.7038974 76.3661221,15.2966276 C76.5678205,15.0949292 76.7910745,14.9301832 77.0220269,14.785453 C75.3222173,13.6799609 73.4160904,12.8700879 71.3652332,12.4358974 C71.4298999,12.7053419 71.473011,12.9809451 71.473011,13.267326 C71.473011,15.2612149 69.857884,16.8763419 67.8655348,16.8763419 C65.8731856,16.8763419 64.2580586,15.2612149 64.2580586,13.267326 C64.2580586,12.9809451 64.29963,12.7053419 64.3642967,12.4358974 C62.3134396,12.8700879 60.4073126,13.6799609 58.7075031,14.785453 C58.9399951,14.9301832 59.1617094,15.0933895 59.3634078,15.2950879 C60.7706777,16.7038974 60.7706777,18.9887863 59.3634078,20.3975958 C57.9530586,21.8048657 55.6712491,21.8048657 54.2624396,20.3975958 C54.0622808,20.1958974 53.8959951,19.9726435 53.7528046,19.7416911 C52.6473126,21.4399609 51.8374396,23.3491673 51.4017094,25.3984847 C51.6711538,25.3338181 51.9482967,25.290707 52.233138,25.290707 C54.2270269,25.290707 55.8421538,26.9073736 55.8421538,28.8981832 C55.8421538,30.8905324 54.2270269,32.5056593 52.233138,32.5056593 C51.9482967,32.5056593 51.6711538,32.4640879 51.4017094,32.3994212 C51.8374396,34.4502784 52.6473126,36.3564054 53.7528046,38.0546752 C53.8959951,37.8237228 54.0622808,37.6004689 54.2624396,37.4003101 C55.6712491,35.9930403 58.0408205,35.9052784 59.4480904,37.3156276 C60.8584396,38.7228974 60.7706777,41.0924689 59.3634078,42.4997387 C59.1617094,42.7014371 58.9399951,42.8661832 58.7075031,43.0109133 C60.4073126,44.1164054 62.3134396,44.9262784 64.3642967,45.3620085 C64.29963,45.0925641 64.2580586,44.8154212 64.2580586,44.5290403 C64.2580586,42.5366911 65.8731856,40.9215641 67.8655348,40.9215641 C69.857884,40.9215641 71.473011,42.5366911 71.473011,44.5290403 C71.473011,44.8154212 71.4298999,45.0925641 71.3652332,45.3620085 C73.4160904,44.9262784 75.3222173,44.1164054 77.0220269,43.0109133 C76.7910745,42.8661832 76.5678205,42.7014371 76.3661221,42.4997387 C74.9588523,41.0924689 74.9588523,38.8091197 76.3661221,37.4003101 C77.7749316,35.9930403 80.0598205,35.9930403 81.4670904,37.4003101 C81.6687888,37.6004689 81.8335348,37.8237228 81.978265,38.0546752 C83.083757,36.3564054 83.89363,34.4502784 84.3278205,32.3994212 C84.0583761,32.4640879 83.7827729,32.5056593 83.4963919,32.5056593" id="Fill-3" fill="#39C2C9"></path>
                <path d="M72.6678877,28.5433455 C72.6678877,25.6944716 70.3580315,23.3846154 67.5091575,23.3846154 C64.6602835,23.3846154 62.3504274,25.6944716 62.3504274,28.5433455 C62.3504274,31.3922195 64.6602835,33.7020757 67.5091575,33.7020757 C70.3580315,33.7020757 72.6678877,31.3922195 72.6678877,28.5433455 Z M74.6678877,28.5433455 C74.6678877,32.496789 71.462601,35.7020757 67.5091575,35.7020757 C63.555714,35.7020757 60.3504274,32.496789 60.3504274,28.5433455 C60.3504274,24.5899021 63.555714,21.3846154 67.5091575,21.3846154 C71.462601,21.3846154 74.6678877,24.5899021 74.6678877,28.5433455 Z" id="Stroke-5" fill="#007F8C" fill-rule="nonzero"></path>
                <path d="M57.3075763,64.1769292 C57.3075763,60.9851673 59.7464335,58.3892625 62.8581319,58.0797863 C62.0590366,54.104326 60.4916398,50.4106276 58.3222271,47.14958 C55.9033858,49.1249927 52.3467192,49.0125958 50.0926239,46.7569609 C47.836989,44.5028657 47.7245922,40.946199 49.7000049,38.5273578 C46.4389573,36.3579451 42.7452589,34.7905482 38.7697985,33.991453 C38.4603223,37.1031514 35.8644176,39.5420085 32.6726557,39.5420085 C29.4808938,39.5420085 26.884989,37.1031514 26.5755128,33.991453 C22.6000525,34.7905482 18.9063541,36.3579451 15.6453065,38.5273578 C17.6207192,40.946199 17.5083223,44.5028657 15.2526874,46.7569609 C12.9985922,49.0125958 9.44192552,49.1249927 7.02308425,47.14958 C4.85367155,50.4106276 3.28627473,54.104326 2.48717949,58.0797863 C5.5988779,58.3892625 8.03773504,60.9851673 8.03773504,64.1769292 C8.03773504,67.3686911 5.5988779,69.9645958 2.48717949,70.274072 C3.28627473,74.2495324 4.85367155,77.9432308 7.02308425,81.2042784 C9.44192552,79.2288657 12.9985922,79.3412625 15.2526874,81.5968974 C17.5083223,83.8509927 17.6207192,87.4076593 15.6453065,89.8265006 C18.9063541,91.9959133 22.6000525,93.5633101 26.5755128,94.3624054 C26.884989,91.250707 29.4808938,88.8118498 32.6726557,88.8118498 C35.8644176,88.8118498 38.4603223,91.250707 38.7697985,94.3624054 C42.7452589,93.5633101 46.4389573,91.9959133 49.7000049,89.8265006 C47.7245922,87.4076593 47.836989,83.8509927 50.0926239,81.5968974 C52.3467192,79.3412625 55.9033858,79.2288657 58.3222271,81.2042784 C60.4916398,77.9432308 62.0590366,74.2495324 62.8581319,70.274072 C59.7464335,69.9645958 57.3075763,67.3686911 57.3075763,64.1769292" id="Fill-9" fill="#00D8D2"></path>
                <path d="M50.046398,64.0744811 C50.046398,54.4232896 42.221399,46.5982906 32.5702076,46.5982906 C22.9190161,46.5982906 15.0940171,54.4232896 15.0940171,64.0744811 C15.0940171,73.7256725 22.9190161,81.5506716 32.5702076,81.5506716 C42.221399,81.5506716 50.046398,73.7256725 50.046398,64.0744811 Z M52.046398,64.0744811 C52.046398,74.830242 43.3259685,83.5506716 32.5702076,83.5506716 C21.8144466,83.5506716 13.0940171,74.830242 13.0940171,64.0744811 C13.0940171,53.3187201 21.8144466,44.5982906 32.5702076,44.5982906 C43.3259685,44.5982906 52.046398,53.3187201 52.046398,64.0744811 Z" id="Stroke-11" fill="#00FFF8" fill-rule="nonzero"></path>
                <path d="M43.1111111,64.6666667 C43.1111111,70.6190794 38.285746,75.4444444 32.3333333,75.4444444 C26.3809206,75.4444444 21.5555556,70.6190794 21.5555556,64.6666667 C21.5555556,58.714254 26.3809206,53.8888889 32.3333333,53.8888889 C38.285746,53.8888889 43.1111111,58.714254 43.1111111,64.6666667" id="Fill-13" fill="#007F8C"></path>
                <polygon id="Stroke-15" fill="#00FFF8" fill-rule="nonzero" points="30.6752137 34.1623932 33.7545788 34.1623932 33.7545788 32.1623932 30.6752137 32.1623932"></polygon>
                <polygon id="Stroke-17" fill="#00FFF8" fill-rule="nonzero" points="52.2307692 44.1111111 55.3101343 44.1111111 55.3101343 42.1111111 52.2307692 42.1111111"></polygon>
                <polygon id="Stroke-19" fill="#00FFF8" fill-rule="nonzero" points="61.3504274 65.6666667 64.4297924 65.6666667 64.4297924 63.6666667 61.3504274 63.6666667"></polygon>
                <polygon id="Stroke-21" fill="#00FFF8" fill-rule="nonzero" points="52.2307692 87.2222222 55.3101343 87.2222222 55.3101343 85.2222222 52.2307692 85.2222222"></polygon>
                <polygon id="Stroke-23" fill="#00FFF8" fill-rule="nonzero" points="30.6752137 96.3418803 33.7545788 96.3418803 33.7545788 94.3418803 30.6752137 94.3418803"></polygon>
                <polygon id="Stroke-25" fill="#00FFF8" fill-rule="nonzero" points="9.11965812 87.2222222 12.1990232 87.2222222 12.1990232 85.2222222 9.11965812 85.2222222"></polygon>
                <polygon id="Stroke-27" fill="#00FFF8" fill-rule="nonzero" points="0 65.6666667 3.07936508 65.6666667 3.07936508 63.6666667 0 63.6666667"></polygon>
                <polygon id="Stroke-29" fill="#00FFF8" fill-rule="nonzero" points="9.11965812 44.1111111 12.1990232 44.1111111 12.1990232 42.1111111 9.11965812 42.1111111"></polygon>
                <path d="M35.5970696,64.3113553 C35.5970696,62.3139258 33.9754515,60.6923077 31.978022,60.6923077 C29.9805924,60.6923077 28.3589744,62.3139258 28.3589744,64.3113553 C28.3589744,66.3087848 29.9805924,67.9304029 31.978022,67.9304029 C33.9754515,67.9304029 35.5970696,66.3087848 35.5970696,64.3113553 Z M37.5970696,64.3113553 C37.5970696,67.4133543 35.080021,69.9304029 31.978022,69.9304029 C28.8760229,69.9304029 26.3589744,67.4133543 26.3589744,64.3113553 C26.3589744,61.2093563 28.8760229,58.6923077 31.978022,58.6923077 C35.080021,58.6923077 37.5970696,61.2093563 37.5970696,64.3113553 Z" id="Stroke-31" fill="#00D8D2" fill-rule="nonzero"></path>
            </g>
        </g>
    </g>
</svg>