<?xml version="1.0" encoding="UTF-8"?>
<svg width="75px" height="112px" viewBox="0 0 75 112" version="1.1" xmlns="http://www.w3.org/2000/svg" xmlns:xlink="http://www.w3.org/1999/xlink">
    <!-- Generator: Sketch 45.1 (43504) - http://www.bohemiancoding.com/sketch -->
    <title>Group 6</title>
    <desc>Created with Sketch.</desc>
    <defs>
        <polygon id="path-1" points="0 36.9420714 0 0.17 49.5397143 0.17 49.5397143 36.9420714 49.5397143 73.7141429 0 73.7141429"></polygon>
        <polygon id="path-3" points="0 73.83 49.5397143 73.83 49.5397143 0.285714286 0 0.285714286"></polygon>
    </defs>
    <g id="R1" stroke="none" stroke-width="1" fill="none" fill-rule="evenodd">
        <g id="Desktop-Screen3-V3" transform="translate(-603.000000, -599.000000)">
            <g id="Group-6" transform="translate(603.000000, 599.000000)">
                <path d="M55.9050895,23.0483189 C55.9050895,21.0209768 57.5483521,19.3777143 59.5754067,19.3777143 L59.5754067,5.67015613 L9.72872154,5.67015613 L9.72872154,19.3777143 C11.7557762,19.3777143 13.3993262,21.0209768 13.3993262,23.0483189 C13.3993262,25.0753736 11.7557762,26.7186362 9.72872154,26.7186362 L9.72872154,64.9954995 L9.72872154,76.9241022 L9.72872154,79.6701561 L59.5754067,79.6701561 L59.5754067,76.9241022 L59.5754067,64.9954995 L59.5754067,26.7186362 C57.5483521,26.7186362 55.9050895,25.0753736 55.9050895,23.0483189" id="Fill-1" fill="#F6682F" transform="translate(34.652064, 42.670156) rotate(-17.000000) translate(-34.652064, -42.670156) "></path>
                <g id="Group-8" transform="translate(37.338172, 67.771139) rotate(23.000000) translate(-37.338172, -67.771139) translate(12.481030, 30.771139)">
                    <g id="Group-3" transform="translate(0.000000, 0.115714)">
                        <mask id="mask-2" fill="white">
                            <use xlink:href="#path-1"></use>
                        </mask>
                        <g id="Clip-2"></g>
                        <path d="M45.892,17.441 C45.892,15.4261429 47.5251429,13.793 49.5397143,13.793 L49.5397143,0.169857143 L0,0.169857143 L0,13.793 C2.01457143,13.793 3.648,15.4261429 3.648,17.441 C3.648,19.4555714 2.01457143,21.0887143 0,21.0887143 L0,59.1298571 L0,70.985 L0,73.7141429 L49.5397143,73.7141429 L49.5397143,70.985 L49.5397143,59.1298571 L49.5397143,21.0887143 C47.5251429,21.0887143 45.892,19.4555714 45.892,17.441" id="Fill-1" fill="#FFA71A" mask="url(#mask-2)"></path>
                    </g>
                    <mask id="mask-4" fill="white">
                        <use xlink:href="#path-3"></use>
                    </mask>
                    <g id="Clip-5"></g>
                    <polygon id="Fill-4" fill="#F6682F" mask="url(#mask-4)" points="8.444 12.996 40.7514286 12.996 40.7514286 11.2457143 8.444 11.2457143"></polygon>
                    <polygon id="Fill-6" fill="#F6682F" mask="url(#mask-4)" points="8.444 18.168 40.7514286 18.168 40.7514286 16.4177143 8.444 16.4177143"></polygon>
                    <polygon id="Fill-7" fill="#F6682F" mask="url(#mask-4)" points="8.444 23.3402857 28.5597143 23.3402857 28.5597143 21.59 8.444 21.59"></polygon>
                    <polygon id="Fill-8" fill="#F6682F" mask="url(#mask-4)" points="27.1262857 57.5851429 32.598 57.5851429 32.598 52.1134286 27.1262857 52.1134286"></polygon>
                    <polygon id="Fill-9" fill="#F6682F" mask="url(#mask-4)" points="37.6442857 55.5957143 41.0957143 55.5957143 41.0957143 52.1442857 37.6442857 52.1442857"></polygon>
                    <polygon id="Fill-10" fill="#F6682F" mask="url(#mask-4)" points="27.126 65.9477143 30.5774286 65.9477143 30.5774286 62.4962857 27.126 62.4962857"></polygon>
                    <polygon id="Fill-11" fill="#F6682F" mask="url(#mask-4)" points="37.6442857 65.9477143 41.0957143 65.9477143 41.0957143 62.4962857 37.6442857 62.4962857"></polygon>
                    <polygon id="Fill-12" fill="#F6682F" mask="url(#mask-4)" points="37.6442857 62.4962857 41.0957143 62.4962857 41.0957143 59.0448571 37.6442857 59.0448571"></polygon>
                    <polygon id="Fill-13" fill="#F6682F" mask="url(#mask-4)" points="34.1928571 65.9477143 37.6442857 65.9477143 37.6442857 62.4962857 34.1928571 62.4962857"></polygon>
                    <path d="M10.1945714,44.9602857 L20.4428571,44.9602857 L20.4428571,34.7122857 L10.1945714,34.7122857 L10.1945714,44.9602857 Z M8.444,46.7108571 L22.1931429,46.7108571 L22.1931429,32.9617143 L8.444,32.9617143 L8.444,46.7108571 Z" id="Fill-14" fill="#F6682F" mask="url(#mask-4)"></path>
                    <polygon id="Fill-15" fill="#F6682F" mask="url(#mask-4)" points="12.5594286 42.5954286 18.078 42.5954286 18.078 37.0768571 12.5594286 37.0768571"></polygon>
                    <path d="M28.91,44.9602857 L39.158,44.9602857 L39.158,34.7122857 L28.91,34.7122857 L28.91,44.9602857 Z M27.1594286,46.7108571 L40.9082857,46.7108571 L40.9082857,32.9617143 L27.1594286,32.9617143 L27.1594286,46.7108571 Z" id="Fill-16" fill="#F6682F" mask="url(#mask-4)"></path>
                    <polygon id="Fill-17" fill="#F6682F" mask="url(#mask-4)" points="31.2745714 42.5954286 36.7931429 42.5954286 36.7931429 37.0768571 31.2745714 37.0768571"></polygon>
                    <path d="M10.1945714,64.1317143 L20.4428571,64.1317143 L20.4428571,53.8831429 L10.1945714,53.8831429 L10.1945714,64.1317143 Z M8.444,65.882 L22.1931429,65.882 L22.1931429,52.1328571 L8.444,52.1328571 L8.444,65.882 Z" id="Fill-18" fill="#F6682F" mask="url(#mask-4)"></path>
                    <polygon id="Fill-19" fill="#F6682F" mask="url(#mask-4)" points="12.5594286 61.7668571 18.078 61.7668571 18.078 56.2482857 12.5594286 56.2482857"></polygon>
                </g>
            </g>
        </g>
    </g>
</svg>