<svg id="Layer_1" data-name="Layer 1" xmlns="http://www.w3.org/2000/svg" viewBox="0 0 120 120"><defs><style>.cls-1{fill:#f8faff;}.cls-2{fill:#39c2c9;}.cls-3{fill:#d2d6df;}.cls-4{fill:#363a43;}</style></defs><title>Artboard 4 copy 7</title><polygon class="cls-1" points="72.39 71.36 60 75.49 47.61 71.36 47.61 63.1 60 65.16 72.39 63.1 72.39 71.36"/><path class="cls-2" d="M80.66,81.69c14.46,8.26,35.12,6.2,35.12,26.85v8.26H4.23v-8.26C4.23,87.89,24.88,90,39.34,81.69"/><polygon class="cls-3" points="68.26 92.02 60 83.75 51.74 92.02 39.34 81.69 43.48 71.36 60 75.49 76.53 71.36 80.66 81.69 68.26 92.02"/><path class="cls-2" d="M37.28,30C37.28,17.5,47.45,11.46,60,11.46S82.72,17.5,82.72,30L72.39,34.18,60,30,47.61,25.92Z"/><path class="cls-1" d="M82.72,30V42.44C80.66,56.9,72.39,63.1,72.39,63.1,68.26,65.16,60,65.16,60,65.16s-8.26,0-12.39-2.07c0,0-8.26-6.2-10.33-20.66V30l10.33-4.13L60,30l12.39,4.13Z"/><path class="cls-3" d="M37.28,50.7a10.33,10.33,0,0,1,0-20.66"/><path class="cls-3" d="M82.72,30a10.33,10.33,0,1,1,0,20.66"/><path class="cls-4" d="M4.23,118.31a1.51,1.51,0,0,1-1.51-1.51v-8.26c0-15.65,11.39-19.29,22.41-22.81,4.59-1.47,9.33-3,13.47-5.35A1.51,1.51,0,0,1,40.09,83c-4.41,2.52-9.31,4.09-14,5.6-10.9,3.49-20.31,6.49-20.31,19.94v8.26A1.51,1.51,0,0,1,4.23,118.31Z"/><path class="cls-4" d="M115.77,118.31a1.51,1.51,0,0,1-1.51-1.51v-8.26c0-13.45-9.41-16.46-20.31-19.94-4.74-1.51-9.63-3.08-14-5.6a1.51,1.51,0,0,1,1.5-2.62c4.14,2.37,8.88,3.88,13.47,5.35,11,3.52,22.41,7.16,22.41,22.81v8.26A1.51,1.51,0,0,1,115.77,118.31Z"/><path class="cls-4" d="M51.74,93.52a1.51,1.51,0,0,1-1-.35L38.38,82.85a1.51,1.51,0,0,1-.44-1.72L42.08,70.8a1.52,1.52,0,0,1,1.77-.9l16.16,4,16.16-4a1.52,1.52,0,0,1,1.77.9l4.13,10.33a1.51,1.51,0,0,1-.44,1.72L69.23,93.18a1.51,1.51,0,0,1-2-.09L60,85.89l-7.2,7.2A1.51,1.51,0,0,1,51.74,93.52ZM60,82.25a1.51,1.51,0,0,1,1.07.44L68.36,90l10.49-8.75-3.23-8.09L60.37,77a1.5,1.5,0,0,1-.73,0L44.39,73.14l-3.24,8.09L51.65,90l7.29-7.29A1.51,1.51,0,0,1,60,82.25Z"/><path class="cls-4" d="M72.39,72.87a1.51,1.51,0,0,1-1.51-1.51V63.1a1.51,1.51,0,1,1,3,0v8.26A1.51,1.51,0,0,1,72.39,72.87Z"/><path class="cls-4" d="M47.61,72.87a1.51,1.51,0,0,1-1.51-1.51V63.1a1.51,1.51,0,1,1,3,0v8.26A1.51,1.51,0,0,1,47.61,72.87Z"/><path class="cls-4" d="M60,66.67c-.35,0-8.67,0-13.07-2.23l-.23-.14c-.36-.27-8.79-6.74-10.92-21.65l0-12.61a1.51,1.51,0,0,1,3,0V42.44c1.82,12.64,8.72,18.63,9.63,19.37,3.81,1.82,11.51,1.84,11.59,1.84s7.77,0,11.58-1.84c.89-.74,7.82-6.81,9.65-19.59l0-12.18a1.51,1.51,0,0,1,3,0V42.44C82.09,57.56,73.66,64,73.3,64.3l-.23.14C68.67,66.65,60.35,66.67,60,66.67Z"/><path class="cls-4" d="M82.72,31.55A1.51,1.51,0,0,1,81.21,30C81.21,17.45,70.26,13,60,13S38.79,17.45,38.79,30a1.51,1.51,0,0,1-3,0c0-12.21,9.51-20.1,24.23-20.1S84.23,17.84,84.23,30A1.51,1.51,0,0,1,82.72,31.55Z"/><path class="cls-4" d="M60,56.34a1.51,1.51,0,0,1,0-3c17.16,0,20.85-3.48,20.88-3.51a1.69,1.69,0,0,1,.84-.46l.73-.13.27,0a8.82,8.82,0,0,0,0-17.64,1.51,1.51,0,1,1,0-3,11.84,11.84,0,0,1,.14,23.67l-.19,0C81.19,53.42,75.9,56.34,60,56.34Z"/><path class="cls-4" d="M91,35.69a1.51,1.51,0,0,1-1.51-1.51C89.48,12.45,74.25,4.7,60,4.7S30.52,12.45,30.52,34.18a1.51,1.51,0,1,1-3,0C27.51,14.44,40.26,1.69,60,1.69S92.49,14.44,92.49,34.18A1.51,1.51,0,0,1,91,35.69Z"/><path class="cls-4" d="M62.07,110H57.93a1.51,1.51,0,1,1,0-3h4.13a1.51,1.51,0,1,1,0,3Z"/><path class="cls-4" d="M62.07,101.79H57.93a1.51,1.51,0,1,1,0-3h4.13a1.51,1.51,0,1,1,0,3Z"/><path class="cls-4" d="M39.34,52.21H37.28a11.84,11.84,0,0,1,0-23.67,1.51,1.51,0,1,1,0,3,8.82,8.82,0,0,0,0,17.64h2.07a1.51,1.51,0,1,1,0,3Z"/><path class="cls-4" d="M72.39,35.69a1.51,1.51,0,0,1-.48-.08L47.65,27.52l-9.82,3.92a1.51,1.51,0,1,1-1.12-2.8L47,24.52a1.52,1.52,0,0,1,1,0l24.26,8.09,9.82-3.93a1.51,1.51,0,1,1,1.12,2.8L73,35.58A1.52,1.52,0,0,1,72.39,35.69Z"/></svg>