<svg id="Layer_1" data-name="Layer 1" xmlns="http://www.w3.org/2000/svg" viewBox="0 0 150 150"><defs><style>.cls-1{fill:#f8faff;}.cls-2{fill:#363a43;}.cls-3{fill:#d2d6df;}.cls-4{fill:none;}.cls-5{fill:#39c2c9;}</style></defs><title>Artboard 4 copy 8</title><rect class="cls-1" x="13.58" y="22.68" width="122.84" height="104.64"/><path class="cls-2" d="M136.42,129H13.58a1.71,1.71,0,0,1-1.71-1.71V22.68A1.71,1.71,0,0,1,13.58,21H136.42a1.71,1.71,0,0,1,1.71,1.71V127.32A1.71,1.71,0,0,1,136.42,129ZM15.29,125.61H134.71V24.39H15.29Z"/><path class="cls-2" d="M136.42,42.58H13.58a1.71,1.71,0,0,1,0-3.41H136.42a1.71,1.71,0,1,1,0,3.41Z"/><path class="cls-2" d="M23.82,33.48H19.27a1.71,1.71,0,0,1,0-3.41h4.55a1.71,1.71,0,0,1,0,3.41Z"/><path class="cls-2" d="M34.05,33.48H29.5a1.71,1.71,0,1,1,0-3.41h4.55a1.71,1.71,0,0,1,0,3.41Z"/><path class="cls-2" d="M44.29,33.48H39.74a1.71,1.71,0,0,1,0-3.41h4.55a1.71,1.71,0,0,1,0,3.41Z"/><path class="cls-2" d="M50,42.58a1.71,1.71,0,0,1-1.71-1.71V22.68a1.71,1.71,0,1,1,3.41,0v18.2A1.71,1.71,0,0,1,50,42.58Z"/><path class="cls-2" d="M129.6,33.48H56.8a1.71,1.71,0,0,1,0-3.41H129.6a1.71,1.71,0,1,1,0,3.41Z"/><path class="cls-2" d="M147.79,129H2.21a1.71,1.71,0,0,1,0-3.41H147.79a1.71,1.71,0,0,1,0,3.41Z"/><rect class="cls-3" x="27.23" y="54.53" width="22.75" height="22.75"/><rect class="cls-4" x="27.23" y="54.53" width="22.75" height="22.75"/><path class="cls-2" d="M88.65,115.38H27.23a1.71,1.71,0,1,1,0-3.41H88.65a1.71,1.71,0,1,1,0,3.41Z"/><path class="cls-2" d="M88.65,106.28H27.23a1.71,1.71,0,0,1,0-3.41H88.65a1.71,1.71,0,0,1,0,3.41Z"/><path class="cls-2" d="M88.65,97.18H27.23a1.71,1.71,0,0,1,0-3.41H88.65a1.71,1.71,0,0,1,0,3.41Z"/><path class="cls-2" d="M88.65,88.08H27.23a1.71,1.71,0,0,1,0-3.41H88.65a1.71,1.71,0,0,1,0,3.41Z"/><rect class="cls-3" x="97.75" y="84.1" width="27.3" height="31.85"/><rect class="cls-5" x="56.8" y="52.25" width="68.24" height="27.3"/><path class="cls-2" d="M83,67.61H78.41a1.71,1.71,0,0,1,0-3.41H83a1.71,1.71,0,0,1,0,3.41Z"/><path class="cls-2" d="M93.2,67.61H88.65a1.71,1.71,0,0,1,0-3.41H93.2a1.71,1.71,0,0,1,0,3.41Z"/><path class="cls-2" d="M103.44,67.61H98.89a1.71,1.71,0,0,1,0-3.41h4.55a1.71,1.71,0,1,1,0,3.41Z"/></svg>